<mxfile host="app.diagrams.net" modified="2023-02-07T12:06:33.173Z" agent="5.0 (Windows NT 6.3; Win64; x64) AppleWebKit/537.36 (KHTML, like Gecko) Chrome/109.0.0.0 Safari/537.36" etag="l9dfCl-zvSBd0Ovs8GIb" version="20.8.17" type="github">
  <diagram name="Page-1" id="PQsns0K7-QcCYE0ueCzM">
    <mxGraphModel dx="1687" dy="899" grid="1" gridSize="10" guides="1" tooltips="1" connect="1" arrows="1" fold="1" page="1" pageScale="1" pageWidth="850" pageHeight="1100" math="0" shadow="0">
      <root>
        <mxCell id="0" />
        <mxCell id="1" parent="0" />
        <mxCell id="QX7Eq3WB0JKZG8Bkd0iu-1" value="&lt;h2&gt;Задание 1&lt;/h2&gt;&lt;div style=&quot;font-size: 16px;&quot;&gt;numbers = [2, 5, 13, 7, 6, 4]&lt;/div&gt;&lt;div style=&quot;font-size: 16px;&quot;&gt;size = 6&lt;/div&gt;&lt;div style=&quot;font-size: 16px;&quot;&gt;sum = 0&lt;/div&gt;&lt;div style=&quot;font-size: 16px;&quot;&gt;avg = 0&lt;/div&gt;&lt;div style=&quot;font-size: 16px;&quot;&gt;index = 0&lt;/div&gt;&lt;div style=&quot;font-size: 16px;&quot;&gt;&lt;br&gt;&lt;/div&gt;&lt;div style=&quot;font-size: 16px;&quot;&gt;while(index &amp;lt; size)&lt;/div&gt;&lt;div style=&quot;font-size: 16px;&quot;&gt;&lt;span style=&quot;white-space: pre;&quot;&gt;	&lt;/span&gt;sum = sum + numbers[index]&lt;br&gt;&lt;/div&gt;&lt;div style=&quot;font-size: 16px;&quot;&gt;&lt;span style=&quot;white-space: pre;&quot;&gt;	&lt;/span&gt;index = index + 1&lt;br&gt;&lt;/div&gt;&lt;div style=&quot;font-size: 16px;&quot;&gt;avg = sum / size&lt;/div&gt;&lt;div style=&quot;font-size: 16px;&quot;&gt;print(avg)&lt;/div&gt;" style="text;html=1;strokeColor=none;fillColor=none;align=left;verticalAlign=top;whiteSpace=wrap;rounded=0;" vertex="1" parent="1">
          <mxGeometry x="30" y="60" width="700" height="300" as="geometry" />
        </mxCell>
        <mxCell id="QX7Eq3WB0JKZG8Bkd0iu-2" value="&lt;h3&gt;Задание 2&lt;/h3&gt;" style="text;html=1;strokeColor=none;fillColor=none;align=left;verticalAlign=middle;whiteSpace=wrap;rounded=0;fontSize=16;" vertex="1" parent="1">
          <mxGeometry x="30" y="370" width="200" height="50" as="geometry" />
        </mxCell>
        <mxCell id="QX7Eq3WB0JKZG8Bkd0iu-5" value="" style="edgeStyle=orthogonalEdgeStyle;rounded=0;orthogonalLoop=1;jettySize=auto;html=1;fontSize=14;" edge="1" parent="1" source="QX7Eq3WB0JKZG8Bkd0iu-3" target="QX7Eq3WB0JKZG8Bkd0iu-4">
          <mxGeometry relative="1" as="geometry" />
        </mxCell>
        <mxCell id="QX7Eq3WB0JKZG8Bkd0iu-3" value="Start" style="ellipse;whiteSpace=wrap;html=1;fontSize=16;" vertex="1" parent="1">
          <mxGeometry x="165" y="420" width="120" height="80" as="geometry" />
        </mxCell>
        <mxCell id="QX7Eq3WB0JKZG8Bkd0iu-7" value="" style="edgeStyle=orthogonalEdgeStyle;rounded=0;orthogonalLoop=1;jettySize=auto;html=1;fontSize=14;" edge="1" parent="1" source="QX7Eq3WB0JKZG8Bkd0iu-4" target="QX7Eq3WB0JKZG8Bkd0iu-6">
          <mxGeometry relative="1" as="geometry" />
        </mxCell>
        <mxCell id="QX7Eq3WB0JKZG8Bkd0iu-4" value="numbers = [1, 8, 3, 8, 2, 6, 8, 8]&lt;br style=&quot;font-size: 14px;&quot;&gt;index = 0&lt;br style=&quot;font-size: 14px;&quot;&gt;maximum = numbers[index]&lt;br style=&quot;font-size: 14px;&quot;&gt;count_maximal = 0" style="shape=parallelogram;perimeter=parallelogramPerimeter;whiteSpace=wrap;html=1;fixedSize=1;fontSize=14;" vertex="1" parent="1">
          <mxGeometry x="95" y="530" width="260" height="90" as="geometry" />
        </mxCell>
        <mxCell id="QX7Eq3WB0JKZG8Bkd0iu-9" value="" style="edgeStyle=orthogonalEdgeStyle;rounded=0;orthogonalLoop=1;jettySize=auto;html=1;fontSize=14;" edge="1" parent="1" source="QX7Eq3WB0JKZG8Bkd0iu-6" target="QX7Eq3WB0JKZG8Bkd0iu-8">
          <mxGeometry relative="1" as="geometry" />
        </mxCell>
        <mxCell id="QX7Eq3WB0JKZG8Bkd0iu-29" value="" style="edgeStyle=orthogonalEdgeStyle;rounded=0;orthogonalLoop=1;jettySize=auto;html=1;fontSize=14;" edge="1" parent="1" source="QX7Eq3WB0JKZG8Bkd0iu-6" target="QX7Eq3WB0JKZG8Bkd0iu-28">
          <mxGeometry relative="1" as="geometry" />
        </mxCell>
        <mxCell id="QX7Eq3WB0JKZG8Bkd0iu-6" value="index &amp;lt; numbers.length" style="rhombus;whiteSpace=wrap;html=1;fontSize=14;" vertex="1" parent="1">
          <mxGeometry x="125" y="660" width="200" height="130" as="geometry" />
        </mxCell>
        <mxCell id="QX7Eq3WB0JKZG8Bkd0iu-11" value="" style="edgeStyle=orthogonalEdgeStyle;rounded=0;orthogonalLoop=1;jettySize=auto;html=1;fontSize=14;" edge="1" parent="1" source="QX7Eq3WB0JKZG8Bkd0iu-8" target="QX7Eq3WB0JKZG8Bkd0iu-10">
          <mxGeometry relative="1" as="geometry" />
        </mxCell>
        <mxCell id="QX7Eq3WB0JKZG8Bkd0iu-14" value="" style="edgeStyle=orthogonalEdgeStyle;rounded=0;orthogonalLoop=1;jettySize=auto;html=1;fontSize=14;entryX=0;entryY=0.5;entryDx=0;entryDy=0;" edge="1" parent="1" source="QX7Eq3WB0JKZG8Bkd0iu-8" target="QX7Eq3WB0JKZG8Bkd0iu-19">
          <mxGeometry relative="1" as="geometry">
            <mxPoint x="435" y="900" as="targetPoint" />
          </mxGeometry>
        </mxCell>
        <mxCell id="QX7Eq3WB0JKZG8Bkd0iu-8" value="&lt;font style=&quot;font-size: 14px;&quot;&gt;numbers[index] &amp;gt; maximum&lt;/font&gt;" style="rhombus;whiteSpace=wrap;html=1;fontSize=16;" vertex="1" parent="1">
          <mxGeometry x="130" y="830" width="190" height="140" as="geometry" />
        </mxCell>
        <mxCell id="QX7Eq3WB0JKZG8Bkd0iu-17" value="" style="edgeStyle=orthogonalEdgeStyle;rounded=0;orthogonalLoop=1;jettySize=auto;html=1;fontSize=14;" edge="1" parent="1" source="QX7Eq3WB0JKZG8Bkd0iu-10" target="QX7Eq3WB0JKZG8Bkd0iu-16">
          <mxGeometry relative="1" as="geometry" />
        </mxCell>
        <mxCell id="QX7Eq3WB0JKZG8Bkd0iu-10" value="&lt;font style=&quot;font-size: 14px;&quot;&gt;maximum = numbers[index]&lt;br&gt;count_maximal = 1&lt;/font&gt;" style="whiteSpace=wrap;html=1;fontSize=16;" vertex="1" parent="1">
          <mxGeometry x="120" y="1090" width="210" height="60" as="geometry" />
        </mxCell>
        <mxCell id="QX7Eq3WB0JKZG8Bkd0iu-12" value="Yes" style="text;html=1;strokeColor=none;fillColor=none;align=center;verticalAlign=middle;whiteSpace=wrap;rounded=0;fontSize=14;" vertex="1" parent="1">
          <mxGeometry x="165" y="1010" width="60" height="30" as="geometry" />
        </mxCell>
        <mxCell id="QX7Eq3WB0JKZG8Bkd0iu-15" value="No" style="text;html=1;strokeColor=none;fillColor=none;align=center;verticalAlign=middle;whiteSpace=wrap;rounded=0;fontSize=14;" vertex="1" parent="1">
          <mxGeometry x="330" y="870" width="60" height="30" as="geometry" />
        </mxCell>
        <mxCell id="QX7Eq3WB0JKZG8Bkd0iu-18" style="edgeStyle=orthogonalEdgeStyle;rounded=0;orthogonalLoop=1;jettySize=auto;html=1;entryX=0;entryY=0.5;entryDx=0;entryDy=0;fontSize=14;" edge="1" parent="1" source="QX7Eq3WB0JKZG8Bkd0iu-16" target="QX7Eq3WB0JKZG8Bkd0iu-6">
          <mxGeometry relative="1" as="geometry">
            <Array as="points">
              <mxPoint x="30" y="1260" />
              <mxPoint x="30" y="725" />
            </Array>
          </mxGeometry>
        </mxCell>
        <mxCell id="QX7Eq3WB0JKZG8Bkd0iu-16" value="&lt;font style=&quot;font-size: 14px;&quot;&gt;index++&lt;/font&gt;" style="whiteSpace=wrap;html=1;fontSize=16;" vertex="1" parent="1">
          <mxGeometry x="165" y="1230" width="120" height="60" as="geometry" />
        </mxCell>
        <mxCell id="QX7Eq3WB0JKZG8Bkd0iu-23" value="" style="edgeStyle=orthogonalEdgeStyle;rounded=0;orthogonalLoop=1;jettySize=auto;html=1;fontSize=14;" edge="1" parent="1" source="QX7Eq3WB0JKZG8Bkd0iu-19" target="QX7Eq3WB0JKZG8Bkd0iu-22">
          <mxGeometry relative="1" as="geometry" />
        </mxCell>
        <mxCell id="QX7Eq3WB0JKZG8Bkd0iu-26" style="edgeStyle=orthogonalEdgeStyle;rounded=0;orthogonalLoop=1;jettySize=auto;html=1;entryX=1;entryY=0.5;entryDx=0;entryDy=0;fontSize=14;" edge="1" parent="1" source="QX7Eq3WB0JKZG8Bkd0iu-19" target="QX7Eq3WB0JKZG8Bkd0iu-16">
          <mxGeometry relative="1" as="geometry">
            <Array as="points">
              <mxPoint x="555" y="1260" />
            </Array>
          </mxGeometry>
        </mxCell>
        <mxCell id="QX7Eq3WB0JKZG8Bkd0iu-19" value="numbers[index] == maximum" style="rhombus;whiteSpace=wrap;html=1;fontSize=14;" vertex="1" parent="1">
          <mxGeometry x="440" y="833.75" width="230" height="132.5" as="geometry" />
        </mxCell>
        <mxCell id="QX7Eq3WB0JKZG8Bkd0iu-25" style="edgeStyle=orthogonalEdgeStyle;rounded=0;orthogonalLoop=1;jettySize=auto;html=1;entryX=1;entryY=0.5;entryDx=0;entryDy=0;fontSize=14;" edge="1" parent="1" source="QX7Eq3WB0JKZG8Bkd0iu-22" target="QX7Eq3WB0JKZG8Bkd0iu-16">
          <mxGeometry relative="1" as="geometry">
            <Array as="points">
              <mxPoint x="895" y="1260" />
            </Array>
          </mxGeometry>
        </mxCell>
        <mxCell id="QX7Eq3WB0JKZG8Bkd0iu-22" value="count_maximal = count_maximal++" style="whiteSpace=wrap;html=1;fontSize=14;" vertex="1" parent="1">
          <mxGeometry x="760" y="840" width="270" height="120" as="geometry" />
        </mxCell>
        <mxCell id="QX7Eq3WB0JKZG8Bkd0iu-24" value="Yes" style="text;html=1;strokeColor=none;fillColor=none;align=center;verticalAlign=middle;whiteSpace=wrap;rounded=0;fontSize=14;" vertex="1" parent="1">
          <mxGeometry x="680" y="870" width="60" height="30" as="geometry" />
        </mxCell>
        <mxCell id="QX7Eq3WB0JKZG8Bkd0iu-27" value="No" style="text;html=1;strokeColor=none;fillColor=none;align=center;verticalAlign=middle;whiteSpace=wrap;rounded=0;fontSize=14;" vertex="1" parent="1">
          <mxGeometry x="500" y="1060" width="60" height="30" as="geometry" />
        </mxCell>
        <mxCell id="QX7Eq3WB0JKZG8Bkd0iu-31" value="" style="edgeStyle=orthogonalEdgeStyle;rounded=0;orthogonalLoop=1;jettySize=auto;html=1;fontSize=14;" edge="1" parent="1" source="QX7Eq3WB0JKZG8Bkd0iu-28" target="QX7Eq3WB0JKZG8Bkd0iu-30">
          <mxGeometry relative="1" as="geometry" />
        </mxCell>
        <mxCell id="QX7Eq3WB0JKZG8Bkd0iu-28" value="print(count_maximal)" style="shape=document;whiteSpace=wrap;html=1;boundedLbl=1;fontSize=14;" vertex="1" parent="1">
          <mxGeometry x="445" y="680" width="165" height="90" as="geometry" />
        </mxCell>
        <mxCell id="QX7Eq3WB0JKZG8Bkd0iu-30" value="End" style="ellipse;whiteSpace=wrap;html=1;fontSize=14;" vertex="1" parent="1">
          <mxGeometry x="700" y="685" width="80" height="80" as="geometry" />
        </mxCell>
      </root>
    </mxGraphModel>
  </diagram>
</mxfile>
